{
  "asset": {
    "version": "2.0",
    "generator": "spectre"
  },
  "scene": 0,
  "scenes": [
    {
      "nodes": [
        0
      ]
    }
  ],
  "nodes": [
    {
      "mesh": 0,
      "name": "Satellite"
    }
  ],
  "meshes": [
    {
      "primitives": [
        {
          "attributes": {
            "POSITION": 0
          },
          "indices": 1,
          "material": 0
        }
      ]
    }
  ],
  "materials": [
    {
      "pbrMetallicRoughness": {
        "baseColorFactor": [
          0.6,
          0.6,
          0.7,
          1
        ],
        "metallicFactor": 0.7,
        "roughnessFactor": 0.3
      },
      "name": "SatelliteMaterial"
    }
  ],
  "buffers": [
    {
      "uri": "data:application/octet-stream;base64,",
      "byteLength": 1080
    }
  ],
  "bufferViews": [
    {
      "buffer": 0,
      "byteOffset": 0,
      "byteLength": 864,
      "target": 34962
    },
    {
      "buffer": 0,
      "byteOffset": 864,
      "byteLength": 216,
      "target": 34963
    }
  ],
  "accessors": [
    {
      "bufferView": 0,
      "componentType": 5126,
      "count": 72,
      "type": "VEC3",
      "max": [
        3,
        0.5,
        0.5
      ],
      "min": [
        -3,
        -0.5,
        -0.5
      ]
    },
    {
      "bufferView": 1,
      "componentType": 5123,
      "count": 108,
      "type": "SCALAR"
    }
  ]
}